<mxfile host="Electron" modified="2023-10-24T20:30:11.463Z" agent="Mozilla/5.0 (Windows NT 10.0; Win64; x64) AppleWebKit/537.36 (KHTML, like Gecko) draw.io/22.0.2 Chrome/114.0.5735.289 Electron/25.8.4 Safari/537.36" etag="2OdeJrQ0Nyr599Tn9mpw" version="22.0.2" type="device">
  <diagram name="Page-1" id="4tzktodrGGCESo3o3Y8_">
    <mxGraphModel dx="1674" dy="844" grid="1" gridSize="10" guides="1" tooltips="1" connect="1" arrows="1" fold="1" page="1" pageScale="1" pageWidth="850" pageHeight="1100" math="0" shadow="0">
      <root>
        <mxCell id="0" />
        <mxCell id="1" parent="0" />
        <mxCell id="xUDz8v_TL9i1yukXeujR-1" value="" style="shape=cylinder3;whiteSpace=wrap;html=1;boundedLbl=1;backgroundOutline=1;size=15;" vertex="1" parent="1">
          <mxGeometry x="40" y="270" width="100" height="110" as="geometry" />
        </mxCell>
        <mxCell id="xUDz8v_TL9i1yukXeujR-2" value="&lt;h1&gt;GitHub&lt;/h1&gt;" style="text;html=1;strokeColor=none;fillColor=none;spacing=5;spacingTop=-20;whiteSpace=wrap;overflow=hidden;rounded=0;" vertex="1" parent="1">
          <mxGeometry x="40" y="310" width="190" height="120" as="geometry" />
        </mxCell>
        <mxCell id="xUDz8v_TL9i1yukXeujR-3" value="" style="rounded=1;whiteSpace=wrap;html=1;" vertex="1" parent="1">
          <mxGeometry x="110" y="60" width="150" height="80" as="geometry" />
        </mxCell>
        <mxCell id="xUDz8v_TL9i1yukXeujR-4" value="&lt;h1&gt;Maven&lt;/h1&gt;" style="text;html=1;strokeColor=none;fillColor=none;spacing=5;spacingTop=-20;whiteSpace=wrap;overflow=hidden;rounded=0;" vertex="1" parent="1">
          <mxGeometry x="140" y="70" width="190" height="120" as="geometry" />
        </mxCell>
        <mxCell id="xUDz8v_TL9i1yukXeujR-5" value="" style="shape=cylinder3;whiteSpace=wrap;html=1;boundedLbl=1;backgroundOutline=1;size=15;" vertex="1" parent="1">
          <mxGeometry x="300" y="190" width="180" height="230" as="geometry" />
        </mxCell>
        <mxCell id="xUDz8v_TL9i1yukXeujR-6" value="" style="shape=cylinder3;whiteSpace=wrap;html=1;boundedLbl=1;backgroundOutline=1;size=15;" vertex="1" parent="1">
          <mxGeometry x="580" y="20" width="110" height="120" as="geometry" />
        </mxCell>
        <mxCell id="xUDz8v_TL9i1yukXeujR-8" value="" style="rounded=0;whiteSpace=wrap;html=1;" vertex="1" parent="1">
          <mxGeometry x="650" y="210" width="230" height="270" as="geometry" />
        </mxCell>
        <mxCell id="xUDz8v_TL9i1yukXeujR-9" value="" style="shape=actor;whiteSpace=wrap;html=1;" vertex="1" parent="1">
          <mxGeometry x="20" y="490" width="40" height="60" as="geometry" />
        </mxCell>
        <mxCell id="xUDz8v_TL9i1yukXeujR-10" value="" style="shape=actor;whiteSpace=wrap;html=1;" vertex="1" parent="1">
          <mxGeometry x="60" y="540" width="40" height="60" as="geometry" />
        </mxCell>
        <mxCell id="xUDz8v_TL9i1yukXeujR-11" value="" style="shape=actor;whiteSpace=wrap;html=1;" vertex="1" parent="1">
          <mxGeometry x="100" y="490" width="40" height="60" as="geometry" />
        </mxCell>
        <mxCell id="xUDz8v_TL9i1yukXeujR-13" value="" style="endArrow=classic;startArrow=classic;html=1;rounded=0;entryX=0.211;entryY=0.667;entryDx=0;entryDy=0;entryPerimeter=0;" edge="1" parent="1" target="xUDz8v_TL9i1yukXeujR-2">
          <mxGeometry width="50" height="50" relative="1" as="geometry">
            <mxPoint x="80" y="510" as="sourcePoint" />
            <mxPoint x="130" y="460" as="targetPoint" />
          </mxGeometry>
        </mxCell>
        <mxCell id="xUDz8v_TL9i1yukXeujR-14" value="" style="endArrow=classic;html=1;rounded=0;entryX=0;entryY=0.5;entryDx=0;entryDy=0;entryPerimeter=0;exitX=0.526;exitY=0.083;exitDx=0;exitDy=0;exitPerimeter=0;" edge="1" parent="1" source="xUDz8v_TL9i1yukXeujR-2" target="xUDz8v_TL9i1yukXeujR-5">
          <mxGeometry width="50" height="50" relative="1" as="geometry">
            <mxPoint x="100" y="266" as="sourcePoint" />
            <mxPoint x="200.08999999999992" y="175.96000000000004" as="targetPoint" />
          </mxGeometry>
        </mxCell>
        <mxCell id="xUDz8v_TL9i1yukXeujR-15" value="" style="endArrow=classic;html=1;rounded=0;" edge="1" parent="1">
          <mxGeometry width="50" height="50" relative="1" as="geometry">
            <mxPoint x="200" y="140" as="sourcePoint" />
            <mxPoint x="300" y="200" as="targetPoint" />
          </mxGeometry>
        </mxCell>
        <mxCell id="xUDz8v_TL9i1yukXeujR-16" value="&lt;h1&gt;Jenkins&lt;/h1&gt;&lt;div&gt;&lt;br&gt;&lt;/div&gt;&lt;div&gt;Git Clone&lt;/div&gt;&lt;div&gt;mvn clean package&lt;/div&gt;&lt;div&gt;docker build&lt;/div&gt;&lt;div&gt;deploy to Kubernetes&lt;/div&gt;" style="text;html=1;strokeColor=none;fillColor=none;spacing=5;spacingTop=-20;whiteSpace=wrap;overflow=hidden;rounded=0;" vertex="1" parent="1">
          <mxGeometry x="340" y="230" width="190" height="120" as="geometry" />
        </mxCell>
        <mxCell id="xUDz8v_TL9i1yukXeujR-17" value="Push changes to GItHub" style="text;html=1;strokeColor=none;fillColor=none;align=center;verticalAlign=middle;whiteSpace=wrap;rounded=0;" vertex="1" parent="1">
          <mxGeometry x="80" y="440" width="60" height="30" as="geometry" />
        </mxCell>
        <mxCell id="xUDz8v_TL9i1yukXeujR-18" value="pull /pull updates andversions" style="text;html=1;strokeColor=none;fillColor=none;align=center;verticalAlign=middle;whiteSpace=wrap;rounded=0;" vertex="1" parent="1">
          <mxGeometry x="160" y="275" width="115" height="30" as="geometry" />
        </mxCell>
        <mxCell id="xUDz8v_TL9i1yukXeujR-19" value="&lt;h1&gt;1&lt;/h1&gt;" style="text;html=1;strokeColor=none;fillColor=none;spacing=5;spacingTop=-20;whiteSpace=wrap;overflow=hidden;rounded=0;" vertex="1" parent="1">
          <mxGeometry x="100" y="400" width="190" height="120" as="geometry" />
        </mxCell>
        <mxCell id="xUDz8v_TL9i1yukXeujR-20" value="&lt;h1&gt;2&lt;/h1&gt;" style="text;html=1;strokeColor=none;fillColor=none;spacing=5;spacingTop=-20;whiteSpace=wrap;overflow=hidden;rounded=0;" vertex="1" parent="1">
          <mxGeometry x="190" y="320" width="190" height="120" as="geometry" />
        </mxCell>
        <mxCell id="xUDz8v_TL9i1yukXeujR-21" value="&lt;h1&gt;3&lt;/h1&gt;" style="text;html=1;strokeColor=none;fillColor=none;spacing=5;spacingTop=-20;whiteSpace=wrap;overflow=hidden;rounded=0;" vertex="1" parent="1">
          <mxGeometry x="219" y="158" width="190" height="120" as="geometry" />
        </mxCell>
        <mxCell id="xUDz8v_TL9i1yukXeujR-22" value="Build Source Code" style="text;html=1;strokeColor=none;fillColor=none;align=center;verticalAlign=middle;whiteSpace=wrap;rounded=0;" vertex="1" parent="1">
          <mxGeometry x="250" y="150" width="80" height="30" as="geometry" />
        </mxCell>
        <mxCell id="xUDz8v_TL9i1yukXeujR-23" value="" style="endArrow=classic;html=1;rounded=0;entryX=0;entryY=0.5;entryDx=0;entryDy=0;entryPerimeter=0;" edge="1" parent="1">
          <mxGeometry width="50" height="50" relative="1" as="geometry">
            <mxPoint x="480.14285714285734" y="241" as="sourcePoint" />
            <mxPoint x="583" y="91" as="targetPoint" />
          </mxGeometry>
        </mxCell>
        <mxCell id="xUDz8v_TL9i1yukXeujR-25" value="" style="endArrow=classic;html=1;rounded=0;entryX=0.736;entryY=0.992;entryDx=0;entryDy=0;entryPerimeter=0;" edge="1" parent="1" target="xUDz8v_TL9i1yukXeujR-6">
          <mxGeometry width="50" height="50" relative="1" as="geometry">
            <mxPoint x="690" y="210" as="sourcePoint" />
            <mxPoint x="670" y="150" as="targetPoint" />
          </mxGeometry>
        </mxCell>
        <mxCell id="xUDz8v_TL9i1yukXeujR-26" value="&lt;h1&gt;Docker Hub / ECR&lt;/h1&gt;" style="text;html=1;strokeColor=none;fillColor=none;spacing=5;spacingTop=-20;whiteSpace=wrap;overflow=hidden;rounded=0;" vertex="1" parent="1">
          <mxGeometry x="530" y="50" width="230" height="120" as="geometry" />
        </mxCell>
        <mxCell id="xUDz8v_TL9i1yukXeujR-27" value="&lt;h1&gt;Kubernetes Cluster&lt;/h1&gt;" style="text;html=1;strokeColor=none;fillColor=none;spacing=5;spacingTop=-20;whiteSpace=wrap;overflow=hidden;rounded=0;" vertex="1" parent="1">
          <mxGeometry x="650" y="228" width="270" height="120" as="geometry" />
        </mxCell>
        <mxCell id="xUDz8v_TL9i1yukXeujR-28" value="Production" style="text;html=1;strokeColor=none;fillColor=none;align=center;verticalAlign=middle;whiteSpace=wrap;rounded=0;" vertex="1" parent="1">
          <mxGeometry x="820" y="188" width="60" height="30" as="geometry" />
        </mxCell>
        <mxCell id="xUDz8v_TL9i1yukXeujR-29" value="Control Plane/Master" style="rounded=0;whiteSpace=wrap;html=1;" vertex="1" parent="1">
          <mxGeometry x="715" y="284" width="100" height="42" as="geometry" />
        </mxCell>
        <mxCell id="xUDz8v_TL9i1yukXeujR-30" value="Worker Node 2" style="rounded=0;whiteSpace=wrap;html=1;" vertex="1" parent="1">
          <mxGeometry x="770" y="390" width="100" height="42" as="geometry" />
        </mxCell>
        <mxCell id="xUDz8v_TL9i1yukXeujR-31" value="Worker Node 1" style="rounded=0;whiteSpace=wrap;html=1;" vertex="1" parent="1">
          <mxGeometry x="660" y="390" width="100" height="42" as="geometry" />
        </mxCell>
        <mxCell id="xUDz8v_TL9i1yukXeujR-32" value="&lt;h1&gt;4&lt;/h1&gt;" style="text;html=1;strokeColor=none;fillColor=none;spacing=5;spacingTop=-20;whiteSpace=wrap;overflow=hidden;rounded=0;" vertex="1" parent="1">
          <mxGeometry x="530" y="158" width="190" height="120" as="geometry" />
        </mxCell>
        <mxCell id="xUDz8v_TL9i1yukXeujR-33" value="Push artifact to remote repo for storage" style="text;html=1;strokeColor=none;fillColor=none;align=center;verticalAlign=middle;whiteSpace=wrap;rounded=0;" vertex="1" parent="1">
          <mxGeometry x="425" y="120" width="125" height="30" as="geometry" />
        </mxCell>
        <mxCell id="xUDz8v_TL9i1yukXeujR-36" value="" style="endArrow=classic;html=1;rounded=0;" edge="1" parent="1">
          <mxGeometry width="50" height="50" relative="1" as="geometry">
            <mxPoint x="480" y="330" as="sourcePoint" />
            <mxPoint x="650" y="330" as="targetPoint" />
          </mxGeometry>
        </mxCell>
        <mxCell id="xUDz8v_TL9i1yukXeujR-37" value="&lt;h1&gt;5&lt;/h1&gt;" style="text;html=1;strokeColor=none;fillColor=none;spacing=5;spacingTop=-20;whiteSpace=wrap;overflow=hidden;rounded=0;" vertex="1" parent="1">
          <mxGeometry x="542" y="296" width="190" height="120" as="geometry" />
        </mxCell>
        <mxCell id="xUDz8v_TL9i1yukXeujR-39" value="Deploy to Kubernetes" style="text;html=1;strokeColor=none;fillColor=none;align=center;verticalAlign=middle;whiteSpace=wrap;rounded=0;" vertex="1" parent="1">
          <mxGeometry x="530" y="340" width="60" height="30" as="geometry" />
        </mxCell>
      </root>
    </mxGraphModel>
  </diagram>
</mxfile>
